<?xml version="1.0" encoding="iso-8859-1"?>
<!-- Uploaded to: SVG Repo, www.svgrepo.com, Generator: SVG Repo Mixer Tools -->
<svg fill=" #ffc000" height="800px" width="800px" version="1.1" id="Layer_1" xmlns="http://www.w3.org/2000/svg" xmlns:xlink="http://www.w3.org/1999/xlink" 
	 viewBox="0 0 512 512" xml:space="preserve">
<g>
	<g>
		<path d="M256,41.966c-31.561,0-57.239,25.677-57.239,57.239c0,31.561,25.677,57.239,57.239,57.239s57.239-25.677,57.239-57.239
			C313.239,67.643,287.562,41.966,256,41.966z M256,125.063c-14.257,0-25.858-11.599-25.858-25.858
			c0-14.257,11.599-25.858,25.858-25.858c14.258,0,25.858,11.599,25.858,25.858C281.858,113.462,270.259,125.063,256,125.063z"/>
	</g>
</g>
<g>
	<g>
		<path d="M256,158.328c-31.561,0-57.239,25.677-57.239,57.238c0,31.561,25.677,57.239,57.239,57.239s57.239-25.677,57.239-57.239
			C313.239,184.005,287.562,158.328,256,158.328z M256,241.424c-14.257,0-25.858-11.599-25.858-25.858
			c0-14.257,11.599-25.857,25.858-25.857c14.258,0,25.858,11.599,25.858,25.857C281.858,229.823,270.259,241.424,256,241.424z"/>
	</g>
</g>
<g>
	<g>
		<path d="M256,274.808c-31.561,0-57.239,25.677-57.239,57.239c0,31.561,25.677,57.239,57.239,57.239s57.239-25.677,57.239-57.239
			C313.239,300.486,287.562,274.808,256,274.808z M256,357.905c-14.257,0-25.858-11.599-25.858-25.858
			c0-14.257,11.599-25.858,25.858-25.858c14.258,0,25.858,11.599,25.858,25.858C281.858,346.304,270.259,357.905,256,357.905z"/>
	</g>
</g>
<g>
	<g>
		<path d="M365.834,273.015v-15.6c26.196-2.333,48.044-15.632,63.832-39.076c13.662-20.286,17.778-41.34,17.948-42.227l3.542-18.622
			h-85.322V141.89c26.196-2.332,48.044-15.632,63.832-39.076c13.662-20.287,17.778-41.34,17.948-42.227l3.542-18.623h-85.322V0
			H146.166v41.966H60.845l3.542,18.623c0.168,0.886,4.286,21.941,17.947,42.227c15.789,23.446,37.635,36.744,63.833,39.076v15.599
			H60.845l3.542,18.622c0.168,0.886,4.286,21.941,17.947,42.227c15.789,23.446,37.635,36.744,63.833,39.076v15.599H60.845
			l3.542,18.622c0.168,0.886,4.286,21.941,17.947,42.227c15.789,23.446,37.635,36.744,63.833,39.076v61.164h63.548V512h92.572
			v-77.896h63.548v-61.165c26.196-2.332,48.044-15.632,63.832-39.076c13.662-20.287,17.778-41.34,17.948-42.227l3.542-18.622
			H365.834z M365.834,188.871h44.586c-6.824,14.684-20.137,33.216-44.586,36.875V188.871z M365.834,73.347h44.586
			c-6.824,14.684-20.137,33.216-44.586,36.875V73.347z M146.166,341.271c-24.451-3.662-37.768-22.202-44.588-36.875h44.588V341.271z
			 M146.166,225.746c-24.451-3.662-37.768-22.202-44.588-36.875h44.588V225.746z M146.166,110.222
			c-24.451-3.663-37.768-22.202-44.588-36.875h44.588V110.222z M270.905,480.619h-29.81v-46.515h29.81V480.619z M334.453,402.723
			h-32.167h-92.572h-32.167V31.381h156.905V402.723z M365.834,341.271v-36.875h44.586
			C403.595,319.08,390.283,337.612,365.834,341.271z"/>
	</g>
</g>
</svg>